<svg xmlns="http://www.w3.org/2000/svg" xmlns:xlink="http://www.w3.org/1999/xlink" contentStyleType="text/css" height="633px" preserveAspectRatio="none" style="width:448px;height:633px;background:#FFFFFF;" version="1.1" viewBox="0 0 448 633" width="448px" zoomAndPan="magnify"><defs/><g><!--class Observer--><g id="elem_Observer"><rect codeLine="1" fill="#F1F1F1" height="64.2969" id="Observer" rx="2.5" ry="2.5" style="stroke:#181818;stroke-width:0.5;" width="423.168" x="12.79" y="403.97"/><ellipse cx="188.0122" cy="419.97" fill="#B4A7E5" rx="11" ry="11" style="stroke:#181818;stroke-width:1.0;"/><path d="M183.934,415.7356 L183.934,413.5794 L191.3247,413.5794 L191.3247,415.7356 L188.8559,415.7356 L188.8559,423.8137 L191.3247,423.8137 L191.3247,425.97 L183.934,425.97 L183.934,423.8137 L186.4028,423.8137 L186.4028,415.7356 L183.934,415.7356 Z " fill="#000000"/><text fill="#000000" font-family="sans-serif" font-size="14" font-style="italic" lengthAdjust="spacing" textLength="64.2236" x="208.5122" y="424.8167">Observer</text><line style="stroke:#181818;stroke-width:0.5;" x1="13.79" x2="434.958" y1="435.97" y2="435.97"/><line style="stroke:#181818;stroke-width:0.5;" x1="13.79" x2="434.958" y1="443.97" y2="443.97"/><ellipse cx="23.79" cy="457.6184" fill="#84BE84" rx="3" ry="3" style="stroke:#038048;stroke-width:1.0;"/><text fill="#000000" font-family="sans-serif" font-size="14" lengthAdjust="spacing" textLength="397.168" x="32.79" y="460.9651">update(homeTeamScore: int, awayTeamScore: int): void</text></g><!--class Subject--><g id="elem_Subject"><rect codeLine="5" fill="#F1F1F1" height="96.8906" id="Subject" rx="2.5" ry="2.5" style="stroke:#181818;stroke-width:0.5;" width="328.5723" x="60.09" y="7"/><ellipse cx="193.9582" cy="23" fill="#B4A7E5" rx="11" ry="11" style="stroke:#181818;stroke-width:1.0;"/><path d="M189.88,18.7656 L189.88,16.6094 L197.2707,16.6094 L197.2707,18.7656 L194.8019,18.7656 L194.8019,26.8438 L197.2707,26.8438 L197.2707,29 L189.88,29 L189.88,26.8438 L192.3488,26.8438 L192.3488,18.7656 L189.88,18.7656 Z " fill="#000000"/><text fill="#000000" font-family="sans-serif" font-size="14" font-style="italic" lengthAdjust="spacing" textLength="52.3359" x="214.4582" y="27.8467">Subject</text><line style="stroke:#181818;stroke-width:0.5;" x1="61.09" x2="387.6623" y1="39" y2="39"/><line style="stroke:#181818;stroke-width:0.5;" x1="61.09" x2="387.6623" y1="47" y2="47"/><ellipse cx="71.09" cy="60.6484" fill="#84BE84" rx="3" ry="3" style="stroke:#038048;stroke-width:1.0;"/><text fill="#000000" font-family="sans-serif" font-size="14" lengthAdjust="spacing" textLength="275.4541" x="80.09" y="63.9951">addObserver(observer: Observer): void</text><ellipse cx="71.09" cy="76.9453" fill="#84BE84" rx="3" ry="3" style="stroke:#038048;stroke-width:1.0;"/><text fill="#000000" font-family="sans-serif" font-size="14" lengthAdjust="spacing" textLength="302.5723" x="80.09" y="80.292">removeObserver(observer: Observer): void</text><ellipse cx="71.09" cy="93.2422" fill="#84BE84" rx="3" ry="3" style="stroke:#038048;stroke-width:1.0;"/><text fill="#000000" font-family="sans-serif" font-size="14" lengthAdjust="spacing" textLength="161.2666" x="80.09" y="96.5889">notifyObservers(): void</text></g><!--class ScoreBoard--><g id="elem_ScoreBoard"><rect codeLine="11" fill="#F1F1F1" height="162.0781" id="ScoreBoard" rx="2.5" ry="2.5" style="stroke:#181818;stroke-width:0.5;" width="434.7549" x="7" y="164.89"/><ellipse cx="179.6724" cy="180.89" fill="#ADD1B2" rx="11" ry="11" style="stroke:#181818;stroke-width:1.0;"/><path d="M182.6411,186.5306 Q182.063,186.8275 181.4224,186.9681 Q180.7817,187.1244 180.0786,187.1244 Q177.5786,187.1244 176.2505,185.4838 Q174.938,183.8275 174.938,180.7025 Q174.938,177.5775 176.2505,175.9213 Q177.5786,174.265 180.0786,174.265 Q180.7817,174.265 181.4224,174.4213 Q182.0786,174.5775 182.6411,174.8744 L182.6411,177.5931 Q182.0161,177.015 181.4224,176.7494 Q180.8286,176.4681 180.2036,176.4681 Q178.8599,176.4681 178.1724,177.5463 Q177.4849,178.6088 177.4849,180.7025 Q177.4849,182.7963 178.1724,183.8744 Q178.8599,184.9369 180.2036,184.9369 Q180.8286,184.9369 181.4224,184.6713 Q182.0161,184.39 182.6411,183.8119 L182.6411,186.5306 Z " fill="#000000"/><text fill="#000000" font-family="sans-serif" font-size="14" lengthAdjust="spacing" textLength="80.9102" x="200.1724" y="185.7367">ScoreBoard</text><line style="stroke:#181818;stroke-width:0.5;" x1="8" x2="440.7549" y1="196.89" y2="196.89"/><rect fill="none" height="6" style="stroke:#C82930;stroke-width:1.0;" width="6" x="15" y="207.5384"/><text fill="#000000" font-family="sans-serif" font-size="14" lengthAdjust="spacing" textLength="190.3877" x="27" y="213.8851">observers: List&lt;Observer&gt;</text><rect fill="none" height="6" style="stroke:#C82930;stroke-width:1.0;" width="6" x="15" y="223.8353"/><text fill="#000000" font-family="sans-serif" font-size="14" lengthAdjust="spacing" textLength="146.0088" x="27" y="230.182">homeTeamScore: int</text><rect fill="none" height="6" style="stroke:#C82930;stroke-width:1.0;" width="6" x="15" y="240.1322"/><text fill="#000000" font-family="sans-serif" font-size="14" lengthAdjust="spacing" textLength="143.2129" x="27" y="246.4789">awayTeamScore: int</text><line style="stroke:#181818;stroke-width:0.5;" x1="8" x2="440.7549" y1="253.7806" y2="253.7806"/><ellipse cx="18" cy="267.4291" fill="#84BE84" rx="3" ry="3" style="stroke:#038048;stroke-width:1.0;"/><text fill="#000000" font-family="sans-serif" font-size="14" lengthAdjust="spacing" textLength="408.7549" x="27" y="270.7757">setScore(homeTeamScore: int, awayTeamScore: int): void</text><ellipse cx="18" cy="283.7259" fill="#84BE84" rx="3" ry="3" style="stroke:#038048;stroke-width:1.0;"/><text fill="#000000" font-family="sans-serif" font-size="14" lengthAdjust="spacing" textLength="275.4541" x="27" y="287.0726">addObserver(observer: Observer): void</text><ellipse cx="18" cy="300.0228" fill="#84BE84" rx="3" ry="3" style="stroke:#038048;stroke-width:1.0;"/><text fill="#000000" font-family="sans-serif" font-size="14" lengthAdjust="spacing" textLength="302.5723" x="27" y="303.3695">removeObserver(observer: Observer): void</text><ellipse cx="18" cy="316.3197" fill="#84BE84" rx="3" ry="3" style="stroke:#038048;stroke-width:1.0;"/><text fill="#000000" font-family="sans-serif" font-size="14" lengthAdjust="spacing" textLength="161.2666" x="27" y="319.6664">notifyObservers(): void</text></g><!--class MobileDevice--><g id="elem_MobileDevice"><rect codeLine="21" fill="#F1F1F1" height="96.8906" id="MobileDevice" rx="2.5" ry="2.5" style="stroke:#181818;stroke-width:0.5;" width="423.168" x="12.79" y="529.27"/><ellipse cx="173.2226" cy="545.27" fill="#ADD1B2" rx="11" ry="11" style="stroke:#181818;stroke-width:1.0;"/><path d="M176.1914,550.9106 Q175.6132,551.2075 174.9726,551.3481 Q174.332,551.5044 173.6289,551.5044 Q171.1289,551.5044 169.8007,549.8638 Q168.4882,548.2075 168.4882,545.0825 Q168.4882,541.9575 169.8007,540.3013 Q171.1289,538.645 173.6289,538.645 Q174.332,538.645 174.9726,538.8013 Q175.6289,538.9575 176.1914,539.2544 L176.1914,541.9731 Q175.5664,541.395 174.9726,541.1294 Q174.3789,540.8481 173.7539,540.8481 Q172.4101,540.8481 171.7226,541.9263 Q171.0351,542.9888 171.0351,545.0825 Q171.0351,547.1763 171.7226,548.2544 Q172.4101,549.3169 173.7539,549.3169 Q174.3789,549.3169 174.9726,549.0513 Q175.5664,548.77 176.1914,548.1919 L176.1914,550.9106 Z " fill="#000000"/><text fill="#000000" font-family="sans-serif" font-size="14" lengthAdjust="spacing" textLength="93.8027" x="193.7226" y="550.1167">MobileDevice</text><line style="stroke:#181818;stroke-width:0.5;" x1="13.79" x2="434.958" y1="561.27" y2="561.27"/><rect fill="none" height="6" style="stroke:#C82930;stroke-width:1.0;" width="6" x="20.79" y="571.9184"/><text fill="#000000" font-family="sans-serif" font-size="14" lengthAdjust="spacing" textLength="138.2363" x="32.79" y="578.2651">deviceName: String</text><line style="stroke:#181818;stroke-width:0.5;" x1="13.79" x2="434.958" y1="585.5669" y2="585.5669"/><ellipse cx="23.79" cy="599.2153" fill="#84BE84" rx="3" ry="3" style="stroke:#038048;stroke-width:1.0;"/><text fill="#000000" font-family="sans-serif" font-size="14" lengthAdjust="spacing" textLength="242.9629" x="32.79" y="602.562">MobileDevice(deviceName: String)</text><ellipse cx="23.79" cy="615.5122" fill="#84BE84" rx="3" ry="3" style="stroke:#038048;stroke-width:1.0;"/><text fill="#000000" font-family="sans-serif" font-size="14" lengthAdjust="spacing" textLength="397.168" x="32.79" y="618.8589">update(homeTeamScore: int, awayTeamScore: int): void</text></g><!--reverse link Subject to ScoreBoard--><g id="link_Subject_ScoreBoard"><path codeLine="27" d="M224.38,122.01 C224.38,140.44 224.38,144.06 224.38,164.75 " fill="none" id="Subject-backto-ScoreBoard" style="stroke:#181818;stroke-width:1.0;stroke-dasharray:7.0,7.0;"/><polygon fill="none" points="224.38,104.01,218.38,122.01,230.38,122.01,224.38,104.01" style="stroke:#181818;stroke-width:1.0;"/></g><!--reverse link Observer to MobileDevice--><g id="link_Observer_MobileDevice"><path codeLine="28" d="M224.38,486.45 C224.38,504.29 224.38,509.02 224.38,529.04 " fill="none" id="Observer-backto-MobileDevice" style="stroke:#181818;stroke-width:1.0;stroke-dasharray:7.0,7.0;"/><polygon fill="none" points="224.38,468.45,218.38,486.45,230.38,486.45,224.38,468.45" style="stroke:#181818;stroke-width:1.0;"/></g><!--link ScoreBoard to Observer--><g id="link_ScoreBoard_Observer"><path codeLine="29" d="M224.38,339.29 C224.38,366.26 224.38,376.77 224.38,397.7 " fill="none" id="ScoreBoard-Observer" style="stroke:#181818;stroke-width:1.0;"/><polygon fill="none" points="224.38,327.29,220.38,333.29,224.38,339.29,228.38,333.29,224.38,327.29" style="stroke:#181818;stroke-width:1.0;"/><polygon fill="#181818" points="224.38,403.7,228.38,394.7,224.38,398.7,220.38,394.7,224.38,403.7" style="stroke:#181818;stroke-width:1.0;"/><text fill="#000000" font-family="sans-serif" font-size="13" lengthAdjust="spacing" textLength="64.1304" x="225.38" y="370.0369">observers</text></g><!--SRC=[nLB1Ri8m3BtdAtmiOkK38iG1STpWK7x0RSpmH6kKX284_3jLIKgcNZRji9mIF-VvsNxSUB8xh0WsfIFRaeMhWkvCuNGqw2dRIqrRmhgen986RlmRu1altsCJ3QsmKNUbUA0iJkKNLNvWH6DYbKp2HG-58yKprr8jBVqulH7Fkql4N9RegGxe7FHIbuBM13avH4wduPsTdyVVYu2FEm_0kFsWmf7lOxySslzFvqDAFj2AMkxM5kTZ-kSQwqvjuIqtdu4kpSx6MPC_6YZQPdwRpPAzgS6XFP2AKCbs9SyNBpFhrvOV]--></g></svg>